<?xml version="1.0" encoding="UTF-8"?>
<svg xmlns="http://www.w3.org/2000/svg" viewBox="0 0 100 100" width="100" height="100">
  <defs>
    <linearGradient id="logoGradient" x1="0%" y1="0%" x2="100%" y2="0%">
      <stop offset="0%" stop-color="#6C15FF" />
      <stop offset="50%" stop-color="#3E8EFF" />
      <stop offset="100%" stop-color="#00BFFF" />
    </linearGradient>
  </defs>
  
  <!-- Black background with rounded edges -->
  <circle cx="50" cy="50" r="50" fill="#000000" />
  
  <!-- Outer circle -->
  <circle cx="50" cy="50" r="45" fill="none" stroke="url(#logoGradient)" stroke-width="3" />
  
  <!-- Inner segments -->
  <path d="M50,15 A35,35 0 0,1 85,50 L70,50 A20,20 0 0,0 50,30 Z" fill="url(#logoGradient)" />
  <path d="M85,50 A35,35 0 0,1 50,85 L50,70 A20,20 0 0,0 70,50 Z" fill="url(#logoGradient)" />
  <path d="M50,85 A35,35 0 0,1 15,50 L30,50 A20,20 0 0,0 50,70 Z" fill="url(#logoGradient)" />
  
  <!-- Center circle -->
  <circle cx="50" cy="50" r="10" fill="url(#logoGradient)" />
</svg> 